<mxfile host="app.diagrams.net" modified="2023-10-25T07:48:23.130Z" agent="Mozilla/5.0 (Windows NT 10.0; Win64; x64) AppleWebKit/537.36 (KHTML, like Gecko) Chrome/116.0.0.0 Safari/537.36 OPR/102.0.0.0" version="22.0.7" etag="VBJiojwuEjIZnlK701Qj" type="github">
  <diagram name="Page-1" id="jWUcSx-0bkqwvL1Lngw0">
    <mxGraphModel>
      <root>
        <mxCell id="0" />
        <mxCell id="1" parent="0" />
      </root>
    </mxGraphModel>
  </diagram>
</mxfile>
